<svg width="17" height="14" viewBox="0 0 17 14" fill="none" xmlns="http://www.w3.org/2000/svg">
<path d="M0 14V12.4444H17V14H0ZM2.31818 11.6667C1.89318 11.6667 1.52948 11.5145 1.22709 11.2101C0.924697 10.9057 0.773242 10.5394 0.772727 10.1111V1.55556C0.772727 1.12778 0.924182 0.761704 1.22709 0.457333C1.53 0.152963 1.8937 0.000518519 2.31818 0H14.6818C15.1068 0 15.4708 0.152444 15.7737 0.457333C16.0766 0.762222 16.2278 1.1283 16.2273 1.55556V10.1111C16.2273 10.5389 16.0761 10.9052 15.7737 11.2101C15.4713 11.515 15.1073 11.6672 14.6818 11.6667H2.31818ZM2.31818 10.1111H14.6818V1.55556H2.31818V10.1111Z" fill="white"/>
<rect x="2.02905" y="1.45691" width="12.7487" height="8.75252" rx="0.871212" fill="white" stroke="#090909" stroke-width="0.580808"/>
</svg>
