<svg width="40" height="40" viewBox="0 0 40 40" fill="none" xmlns="http://www.w3.org/2000/svg">
<path d="M3.33334 9.99984C3.33334 9.11578 3.68453 8.26794 4.30965 7.64281C4.93478 7.01769 5.78262 6.6665 6.66668 6.6665H33.3333C34.2174 6.6665 35.0652 7.01769 35.6904 7.64281C36.3155 8.26794 36.6667 9.11578 36.6667 9.99984V28.3332C36.6667 29.2172 36.3155 30.0651 35.6904 30.6902C35.0652 31.3153 34.2174 31.6665 33.3333 31.6665H25.69L21.1783 36.1782C20.8658 36.4906 20.442 36.6661 20 36.6661C19.5581 36.6661 19.1342 36.4906 18.8217 36.1782L14.31 31.6665H6.66668C5.78262 31.6665 4.93478 31.3153 4.30965 30.6902C3.68453 30.0651 3.33334 29.2172 3.33334 28.3332V9.99984ZM33.3333 9.99984H6.66668V28.3332H15C15.442 28.3333 15.8659 28.5089 16.1783 28.8215L20 32.6432L23.8217 28.8215C24.1342 28.5089 24.558 28.3333 25 28.3332H33.3333V9.99984Z" fill="white"/>
<path d="M22.5 19.1665C22.5 19.8295 22.2366 20.4654 21.7678 20.9343C21.2989 21.4031 20.6631 21.6665 20 21.6665C19.337 21.6665 18.7011 21.4031 18.2322 20.9343C17.7634 20.4654 17.5 19.8295 17.5 19.1665C17.5 18.5035 17.7634 17.8676 18.2322 17.3987C18.7011 16.9299 19.337 16.6665 20 16.6665C20.6631 16.6665 21.2989 16.9299 21.7678 17.3987C22.2366 17.8676 22.5 18.5035 22.5 19.1665ZM29.1667 19.1665C29.1667 19.8295 28.9033 20.4654 28.4344 20.9343C27.9656 21.4031 27.3297 21.6665 26.6667 21.6665C26.0036 21.6665 25.3677 21.4031 24.8989 20.9343C24.4301 20.4654 24.1667 19.8295 24.1667 19.1665C24.1667 18.5035 24.4301 17.8676 24.8989 17.3987C25.3677 16.9299 26.0036 16.6665 26.6667 16.6665C27.3297 16.6665 27.9656 16.9299 28.4344 17.3987C28.9033 17.8676 29.1667 18.5035 29.1667 19.1665ZM15.8333 19.1665C15.8333 19.8295 15.57 20.4654 15.1011 20.9343C14.6323 21.4031 13.9964 21.6665 13.3333 21.6665C12.6703 21.6665 12.0344 21.4031 11.5656 20.9343C11.0967 20.4654 10.8333 19.8295 10.8333 19.1665C10.8333 18.5035 11.0967 17.8676 11.5656 17.3987C12.0344 16.9299 12.6703 16.6665 13.3333 16.6665C13.9964 16.6665 14.6323 16.9299 15.1011 17.3987C15.57 17.8676 15.8333 18.5035 15.8333 19.1665Z" fill="white"/>
</svg>
