<svg width="16" height="15" viewBox="0 0 16 15" fill="none" xmlns="http://www.w3.org/2000/svg">
<path fill-rule="evenodd" clip-rule="evenodd" d="M7.19701 11.0413L4.21752 8.22603C4.54516 7.70806 4.87173 7.17206 5.19513 6.63906C6.27241 4.86974 7.32425 3.14251 8.31035 2.24382C10.9866 -0.284915 14.6521 1.18183 14.6521 1.18183C14.6521 1.18183 16.2034 4.64532 13.5282 7.17406C12.5845 8.09779 10.7851 9.07763 8.92639 10.0875C8.34746 10.4031 7.76322 10.7207 7.19701 11.0413ZM9.46609 4.49705C9.46609 4.07669 9.64282 3.67354 9.9574 3.3763C10.272 3.07906 10.6986 2.91208 11.1435 2.91208C11.5884 2.91208 12.0151 3.07906 12.3296 3.3763C12.6442 3.67354 12.8209 4.07669 12.8209 4.49705C12.8099 4.91038 12.6284 5.30328 12.3152 5.59194C12.0019 5.88061 11.5816 6.04217 11.144 6.04217C10.7065 6.04217 10.2862 5.88061 9.97293 5.59194C9.65965 5.30328 9.47709 4.91038 9.46609 4.49705ZM5.12939 4.26461C3.62586 3.8869 2.21457 4.58621 0.962338 5.67125C0.904591 5.72265 0.860361 5.78609 0.833179 5.85652C0.805996 5.92695 0.796615 6.0024 0.805783 6.07686C0.814951 6.15132 0.842415 6.22273 0.885982 6.28538C0.929549 6.34802 0.988013 6.40018 1.05671 6.43768L3.07661 7.58784L3.07873 7.58383C3.37032 7.12297 3.69584 6.58897 4.02666 6.04795C4.40307 5.42979 4.78585 4.80262 5.12939 4.26461ZM7.87243 12.1193L9.08968 14.0279C9.12946 14.0927 9.18474 14.1479 9.25108 14.189C9.31743 14.23 9.39302 14.2559 9.47182 14.2645C9.55062 14.273 9.63045 14.2641 9.70493 14.2383C9.77942 14.2125 9.8465 14.1707 9.90082 14.1161C11.0491 12.9339 11.7903 11.5994 11.3895 10.1787C10.836 10.4933 10.255 10.8099 9.67922 11.1235L9.59121 11.1716C9.01016 11.4881 8.4344 11.8007 7.87774 12.1163L7.87243 12.1193ZM3.03526 10.1196C3.46381 10.1124 3.8846 10.2281 4.24217 10.4514C4.59973 10.6747 4.87729 10.9952 5.03826 11.3705C5.19922 11.7459 5.23603 12.1585 5.14384 12.554C5.05165 12.9495 4.83478 13.3094 4.52183 13.5861C4.28644 13.7985 3.91851 13.9648 3.57814 14.093C3.19665 14.2328 2.80728 14.3525 2.41179 14.4517C2.02266 14.5519 1.65155 14.632 1.37056 14.6851C1.25242 14.708 1.13362 14.7277 1.01429 14.7442C0.967395 14.7496 0.920376 14.7539 0.873272 14.7573C0.80245 14.7623 0.731257 14.7548 0.663329 14.7352C0.564043 14.7074 0.475335 14.6531 0.407792 14.5789C0.350392 14.5156 0.31034 14.4399 0.291157 14.3585C0.276847 14.3008 0.27255 14.2412 0.278433 14.1822C0.281614 14.1421 0.287976 14.096 0.294338 14.054C0.308122 13.9658 0.329328 13.8506 0.357957 13.7193C0.414154 13.4548 0.5011 13.1062 0.607132 12.7405C0.713164 12.3758 0.842522 11.9851 0.987786 11.6434C1.12351 11.3218 1.29952 10.9752 1.52431 10.7538C1.71838 10.5578 1.95213 10.4008 2.21168 10.2918C2.47123 10.1829 2.7513 10.1243 3.03526 10.1196Z" fill="white"/>
</svg>
