<svg width="42" height="39" viewBox="0 0 42 39" fill="none" xmlns="http://www.w3.org/2000/svg">
<g clip-path="url(#clip0_132_325)">
<path d="M41.3809 8.88672C42.0413 9.85156 42.1899 10.9434 41.8267 12.1621L35.0165 35.166C34.7028 36.2493 34.0714 37.1592 33.1221 37.8955C32.1728 38.6318 31.1616 39 30.0885 39H7.23114C5.95991 39 4.73409 38.5472 3.55366 37.6416C2.37324 36.736 1.5519 35.623 1.08963 34.3027C0.693405 33.1686 0.676895 32.0938 1.0401 31.0781C1.0401 31.0104 1.06487 30.7819 1.1144 30.3926C1.16392 30.0033 1.19694 29.6901 1.21345 29.4531C1.22996 29.3177 1.2052 29.1357 1.13916 28.9072C1.07312 28.6787 1.04836 28.5137 1.06487 28.4121C1.09789 28.2259 1.16392 28.0482 1.26298 27.8789C1.36204 27.7096 1.49824 27.5107 1.67159 27.2822C1.84494 27.0537 1.98114 26.8548 2.0802 26.6855C2.45991 26.0423 2.83138 25.2679 3.19458 24.3623C3.55779 23.4567 3.80543 22.6823 3.93751 22.0391C3.98704 21.8698 3.99116 21.6159 3.94989 21.2773C3.90862 20.9388 3.90449 20.7018 3.93751 20.5664C3.98704 20.3802 4.12737 20.1432 4.3585 19.8555C4.58963 19.5677 4.72996 19.373 4.77949 19.2715C5.12619 18.6621 5.47289 17.8835 5.81958 16.9355C6.16628 15.9876 6.37265 15.2259 6.43869 14.6504C6.4552 14.498 6.43456 14.2272 6.37678 13.8379C6.31899 13.4486 6.32312 13.2116 6.38916 13.127C6.4552 12.9069 6.6368 12.6488 6.93397 12.3525C7.23114 12.0563 7.41274 11.8659 7.47878 11.7812C7.79246 11.3411 8.14329 10.626 8.53126 9.63574C8.91923 8.64551 9.14623 7.82878 9.21227 7.18555C9.22878 7.05013 9.20402 6.83431 9.13798 6.53809C9.07194 6.24186 9.05543 6.01758 9.08845 5.86523C9.12147 5.72982 9.19576 5.57747 9.31133 5.4082C9.4269 5.23893 9.57548 5.04427 9.75708 4.82422C9.93869 4.60417 10.079 4.42643 10.1781 4.29102C10.3101 4.08789 10.4464 3.82975 10.5867 3.5166C10.727 3.20345 10.8508 2.90723 10.9581 2.62793C11.0655 2.34863 11.1975 2.04395 11.3544 1.71387C11.5112 1.38379 11.6722 1.11296 11.8373 0.901367C12.0024 0.689779 12.2211 0.490885 12.4935 0.304688C12.7659 0.11849 13.0631 0.0211589 13.385 0.0126953C13.707 0.00423177 14.0991 0.0507812 14.5613 0.152344L14.5366 0.228516C15.1639 0.0761719 15.5849 0 15.7995 0H34.6451C35.8668 0 36.8078 0.473958 37.4682 1.42188C38.1285 2.36979 38.2771 3.47005 37.9139 4.72266L31.1285 27.7266C30.5342 29.7409 29.944 31.04 29.3579 31.624C28.7718 32.208 27.7111 32.5 26.1757 32.5H4.65567C4.20991 32.5 3.89623 32.627 3.71463 32.8809C3.53303 33.1517 3.52477 33.5156 3.68987 33.9727C4.08609 35.1576 5.27477 35.75 7.2559 35.75H30.1132C30.592 35.75 31.0543 35.6188 31.5 35.3564C31.9458 35.0941 32.2347 34.7428 32.3668 34.3027L39.796 9.24219C39.9116 8.86979 39.9528 8.38737 39.9198 7.79492C40.5472 8.04883 41.0342 8.41276 41.3809 8.88672ZM15.0318 8.9375C14.9658 9.15755 14.9823 9.34798 15.0814 9.50879C15.1804 9.6696 15.3455 9.75 15.5767 9.75H30.6333C30.8479 9.75 31.0584 9.6696 31.2647 9.50879C31.4711 9.34798 31.6073 9.15755 31.6734 8.9375L32.1934 7.3125C32.2594 7.09245 32.2429 6.90202 32.1439 6.74121C32.0448 6.5804 31.8797 6.5 31.6486 6.5H16.592C16.3774 6.5 16.1669 6.5804 15.9605 6.74121C15.7541 6.90202 15.6179 7.09245 15.5519 7.3125L15.0318 8.9375ZM12.9764 15.4375C12.9104 15.6576 12.9269 15.848 13.026 16.0088C13.125 16.1696 13.2901 16.25 13.5212 16.25H28.5778C28.7925 16.25 29.003 16.1696 29.2093 16.0088C29.4157 15.848 29.5519 15.6576 29.6179 15.4375L30.138 13.8125C30.204 13.5924 30.1875 13.402 30.0885 13.2412C29.9894 13.0804 29.8243 13 29.5932 13H14.5366C14.3219 13 14.1114 13.0804 13.9051 13.2412C13.6987 13.402 13.5625 13.5924 13.4965 13.8125L12.9764 15.4375Z" fill="white"/>
</g>
<defs>
<clipPath id="clip0_132_325">
<rect width="42" height="39" fill="white"/>
</clipPath>
</defs>
</svg>
