<svg width="38" height="39" viewBox="0 0 38 39" fill="none" xmlns="http://www.w3.org/2000/svg">
<path d="M26.7188 13.2812L20.8333 7.39583L23.75 4.42708L26.7188 7.39583L34.0625 0L37.0313 2.96875L26.7188 13.2812ZM0 38.2812V0.78125H18.75C18.0556 1.82292 17.5347 2.82153 17.1875 3.77708C16.8403 4.73264 16.6667 5.81736 16.6667 7.03125C16.6667 9.53125 17.4569 11.7361 19.0375 13.6458C20.6181 15.5556 22.6056 16.7535 25 17.2396C25.7986 17.3437 26.4931 17.3958 27.0833 17.3958C27.6736 17.3958 28.3681 17.3437 29.1667 17.2396V38.2812L14.5833 32.0312L0 38.2812Z" fill="#E21B1B"/>
</svg>
